<?xml version="1.0" standalone="no"?>
<!DOCTYPE svg PUBLIC "-//W3C//DTD SVG 20010904//EN"
 "http://www.w3.org/TR/2001/REC-SVG-20010904/DTD/svg10.dtd">
<svg version="1.0" xmlns="http://www.w3.org/2000/svg"
 width="700.000000pt" height="700.000000pt" viewBox="0 0 700.000000 700.000000"
 preserveAspectRatio="xMidYMid meet">
<metadata>
Created by potrace 1.14, written by Peter Selinger 2001-2017
</metadata>
<g transform="translate(0.000000,700.000000) scale(0.100000,-0.100000)"
fill="#000000" stroke="none">
<path d="M3337 6994 c-1 -1 -40 -4 -87 -8 -111 -7 -187 -15 -230 -22 -19 -3
-51 -7 -70 -10 -19 -2 -42 -7 -50 -9 -8 -3 -33 -7 -55 -11 -48 -8 -70 -12 -70
-14 0 -1 -11 -3 -25 -5 -38 -5 -213 -52 -319 -86 -373 -119 -772 -331 -1092
-581 -162 -126 -423 -382 -529 -518 -19 -25 -39 -50 -45 -56 -5 -6 -19 -23
-30 -38 -11 -16 -25 -33 -30 -40 -26 -28 -105 -146 -105 -155 0 -6 -4 -11 -8
-11 -4 0 -16 -15 -26 -32 -11 -18 -34 -55 -51 -83 -56 -87 -213 -387 -219
-419 -2 -6 -10 -29 -20 -51 -33 -75 -39 -90 -43 -108 -1 -10 -9 -30 -17 -45
-7 -15 -17 -40 -21 -57 -10 -34 -10 -35 -18 -55 -3 -8 -11 -33 -17 -55 -6 -22
-14 -47 -17 -55 -3 -8 -8 -26 -10 -40 -2 -14 -6 -32 -10 -40 -3 -8 -7 -19 -8
-25 -2 -5 -7 -28 -13 -50 -11 -41 -18 -74 -28 -135 -3 -19 -10 -55 -15 -79 -5
-24 -12 -63 -15 -86 -3 -24 -7 -53 -9 -66 -3 -12 -7 -59 -11 -103 -3 -45 -8
-97 -9 -116 -9 -80 -4 -550 5 -550 3 0 6 -15 6 -32 1 -57 13 -145 34 -258 6
-30 12 -66 15 -80 2 -14 4 -25 5 -25 1 0 4 -13 6 -30 3 -16 12 -55 20 -85 8
-30 17 -64 20 -75 3 -11 7 -29 9 -40 2 -11 13 -47 25 -80 11 -33 20 -61 20
-62 0 -6 5 -24 13 -43 3 -8 22 -60 43 -115 20 -55 41 -106 46 -112 6 -7 8 -13
5 -13 -4 0 4 -21 17 -47 13 -27 41 -84 61 -127 34 -71 57 -114 128 -236 33
-57 49 -83 102 -161 27 -41 52 -78 54 -84 2 -5 7 -12 11 -15 3 -3 26 -32 51
-65 24 -33 46 -62 49 -65 3 -3 37 -43 76 -90 97 -116 390 -410 409 -410 3 0
19 -14 35 -30 16 -17 34 -30 39 -30 5 0 11 -3 13 -7 2 -5 30 -28 63 -53 33
-25 61 -48 63 -52 2 -5 10 -8 17 -8 7 0 15 -3 17 -7 4 -11 97 -73 107 -73 5 0
11 -4 13 -8 3 -8 83 -58 173 -110 61 -34 362 -182 372 -182 5 0 27 -8 49 -19
141 -66 560 -182 744 -205 19 -3 51 -7 70 -10 132 -22 247 -29 475 -30 224 0
344 7 480 28 78 12 100 16 138 21 21 3 79 14 130 26 51 11 100 22 109 24 109
24 343 101 473 155 17 7 35 14 41 15 30 7 321 156 413 211 145 88 141 85 183
117 21 16 38 25 38 20 0 -4 4 -3 8 3 4 5 25 23 47 39 155 114 272 214 414 356
157 156 292 313 382 446 18 26 36 50 39 53 4 3 10 12 13 20 4 8 30 49 57 90
27 41 63 102 81 135 17 33 34 62 38 65 8 7 61 115 61 125 0 5 6 16 13 24 8 9
27 48 42 86 16 39 32 75 35 80 6 9 42 101 46 115 0 3 4 12 7 20 25 60 102 305
112 358 2 9 4 17 5 17 1 0 3 11 5 25 2 14 10 52 19 85 15 60 20 85 31 160 3
23 7 50 9 61 2 11 7 47 11 79 4 33 10 69 12 80 3 11 6 151 8 310 2 231 -1 319
-16 435 -24 192 -26 205 -51 323 -12 56 -22 110 -22 120 0 9 -4 17 -8 17 -4 0
-8 9 -8 21 0 22 -12 63 -68 234 -20 61 -36 113 -37 117 0 3 -3 10 -7 14 -5 4
-8 16 -8 26 0 10 -4 18 -8 18 -5 0 -14 19 -21 43 -33 111 -238 494 -349 652
-41 57 -144 197 -152 205 -3 3 -27 32 -55 65 -125 151 -272 297 -465 462 -19
17 -82 64 -140 106 -58 42 -110 81 -117 87 -7 5 -15 10 -19 10 -3 0 -23 12
-43 28 -40 30 -44 33 -189 114 -57 32 -108 58 -113 58 -5 0 -9 5 -9 10 0 6 -3
9 -7 8 -5 -1 -44 15 -88 36 -83 40 -123 57 -140 62 -5 1 -28 10 -50 20 -22 10
-44 19 -50 21 -5 1 -62 21 -125 43 -145 51 -335 102 -425 115 -11 2 -20 4 -20
5 0 2 -24 7 -72 14 -21 3 -49 8 -63 11 -35 7 -86 14 -155 20 -33 4 -82 8 -110
11 -51 5 -443 12 -448 8z"/>
</g>
</svg>
